<svg id="visual" viewBox="0 0 540 960" width="540" height="960" xmlns="http://www.w3.org/2000/svg" xmlns:xlink="http://www.w3.org/1999/xlink" version="1.1"><g stroke-width="1" stroke-linejoin="bevel"><path d="M274 492L335 509L313 447Z" fill="#00101c" stroke="#00101c"></path><path d="M335 509L346 465L313 447Z" fill="#277297" stroke="#277297"></path><path d="M335 509L389 518L346 465Z" fill="#112e42" stroke="#112e42"></path><path d="M274 492L323 571L335 509Z" fill="#15384f" stroke="#15384f"></path><path d="M335 509L387 540L389 518Z" fill="#19435d" stroke="#19435d"></path><path d="M313 447L238 423L274 492Z" fill="#15384f" stroke="#15384f"></path><path d="M377 561L387 540L335 509Z" fill="#1d4e6b" stroke="#1d4e6b"></path><path d="M238 423L215 460L274 492Z" fill="#081a28" stroke="#081a28"></path><path d="M274 492L206 554L323 571Z" fill="#19435d" stroke="#19435d"></path><path d="M215 460L215 514L274 492Z" fill="#15384f" stroke="#15384f"></path><path d="M323 571L377 561L335 509Z" fill="#112e42" stroke="#112e42"></path><path d="M389 518L399 417L346 465Z" fill="#112e42" stroke="#112e42"></path><path d="M346 465L399 417L313 447Z" fill="#15384f" stroke="#15384f"></path><path d="M313 447L264 377L238 423Z" fill="#0c2435" stroke="#0c2435"></path><path d="M450 477L399 417L389 518Z" fill="#00101c" stroke="#00101c"></path><path d="M343 348L264 377L313 447Z" fill="#00101c" stroke="#00101c"></path><path d="M153 509L179 507L122 444Z" fill="#205a7a" stroke="#205a7a"></path><path d="M179 507L206 554L215 514Z" fill="#112e42" stroke="#112e42"></path><path d="M215 514L206 554L274 492Z" fill="#246688" stroke="#246688"></path><path d="M200 395L215 460L238 423Z" fill="#00101c" stroke="#00101c"></path><path d="M215 460L179 507L215 514Z" fill="#081a28" stroke="#081a28"></path><path d="M399 417L343 348L313 447Z" fill="#246688" stroke="#246688"></path><path d="M203 330L200 395L264 377Z" fill="#00101c" stroke="#00101c"></path><path d="M264 377L200 395L238 423Z" fill="#15384f" stroke="#15384f"></path><path d="M490 514L389 518L387 540Z" fill="#00101c" stroke="#00101c"></path><path d="M490 514L450 477L389 518Z" fill="#081a28" stroke="#081a28"></path><path d="M399 417L440 362L343 348Z" fill="#081a28" stroke="#081a28"></path><path d="M200 395L188 399L215 460Z" fill="#205a7a" stroke="#205a7a"></path><path d="M247 624L313 633L323 571Z" fill="#246688" stroke="#246688"></path><path d="M323 571L361 633L377 561Z" fill="#297ea6" stroke="#297ea6"></path><path d="M206 554L247 624L323 571Z" fill="#15384f" stroke="#15384f"></path><path d="M450 477L457 429L399 417Z" fill="#246688" stroke="#246688"></path><path d="M122 444L179 507L215 460Z" fill="#19435d" stroke="#19435d"></path><path d="M179 507L153 509L206 554Z" fill="#297ea6" stroke="#297ea6"></path><path d="M206 554L208 616L247 624Z" fill="#297ea6" stroke="#297ea6"></path><path d="M313 633L361 633L323 571Z" fill="#00101c" stroke="#00101c"></path><path d="M377 561L448 624L387 540Z" fill="#19435d" stroke="#19435d"></path><path d="M187 621L208 616L206 554Z" fill="#112e42" stroke="#112e42"></path><path d="M457 429L440 362L399 417Z" fill="#00101c" stroke="#00101c"></path><path d="M410 696L406 634L361 633Z" fill="#081a28" stroke="#081a28"></path><path d="M361 633L406 634L377 561Z" fill="#205a7a" stroke="#205a7a"></path><path d="M450 477L485 437L457 429Z" fill="#297ea6" stroke="#297ea6"></path><path d="M457 429L487 391L440 362Z" fill="#297ea6" stroke="#297ea6"></path><path d="M518 499L485 437L450 477Z" fill="#246688" stroke="#246688"></path><path d="M496 565L490 514L387 540Z" fill="#15384f" stroke="#15384f"></path><path d="M324 257L260 306L343 348Z" fill="#112e42" stroke="#112e42"></path><path d="M343 348L260 306L264 377Z" fill="#15384f" stroke="#15384f"></path><path d="M200 395L203 330L188 399Z" fill="#1d4e6b" stroke="#1d4e6b"></path><path d="M112 584L187 621L206 554Z" fill="#15384f" stroke="#15384f"></path><path d="M208 616L252 665L247 624Z" fill="#0c2435" stroke="#0c2435"></path><path d="M247 624L252 665L313 633Z" fill="#297ea6" stroke="#297ea6"></path><path d="M260 306L203 330L264 377Z" fill="#00101c" stroke="#00101c"></path><path d="M188 399L122 444L215 460Z" fill="#0c2435" stroke="#0c2435"></path><path d="M223 695L252 665L208 616Z" fill="#081a28" stroke="#081a28"></path><path d="M313 633L316 698L361 633Z" fill="#1d4e6b" stroke="#1d4e6b"></path><path d="M90 433L122 444L103 338Z" fill="#00101c" stroke="#00101c"></path><path d="M153 509L112 584L206 554Z" fill="#15384f" stroke="#15384f"></path><path d="M260 306L246 301L203 330Z" fill="#19435d" stroke="#19435d"></path><path d="M233 239L246 301L260 306Z" fill="#00101c" stroke="#00101c"></path><path d="M406 634L448 624L377 561Z" fill="#15384f" stroke="#15384f"></path><path d="M485 437L487 391L457 429Z" fill="#205a7a" stroke="#205a7a"></path><path d="M540 441L487 391L485 437Z" fill="#246688" stroke="#246688"></path><path d="M448 624L496 565L387 540Z" fill="#277297" stroke="#277297"></path><path d="M490 514L518 499L450 477Z" fill="#0c2435" stroke="#0c2435"></path><path d="M246 301L205 308L203 330Z" fill="#15384f" stroke="#15384f"></path><path d="M103 338L122 444L188 399Z" fill="#15384f" stroke="#15384f"></path><path d="M540 537L518 499L490 514Z" fill="#297ea6" stroke="#297ea6"></path><path d="M415 291L343 348L440 362Z" fill="#246688" stroke="#246688"></path><path d="M415 291L362 279L343 348Z" fill="#112e42" stroke="#112e42"></path><path d="M246 301L233 239L205 308Z" fill="#19435d" stroke="#19435d"></path><path d="M122 444L95 494L153 509Z" fill="#205a7a" stroke="#205a7a"></path><path d="M252 665L316 698L313 633Z" fill="#0c2435" stroke="#0c2435"></path><path d="M406 634L455 682L448 624Z" fill="#1d4e6b" stroke="#1d4e6b"></path><path d="M468 281L415 291L440 362Z" fill="#277297" stroke="#277297"></path><path d="M91 561L112 584L153 509Z" fill="#15384f" stroke="#15384f"></path><path d="M187 621L223 695L208 616Z" fill="#297ea6" stroke="#297ea6"></path><path d="M103 338L188 399L203 330Z" fill="#1d4e6b" stroke="#1d4e6b"></path><path d="M122 444L90 433L95 494Z" fill="#00101c" stroke="#00101c"></path><path d="M321 232L324 257L362 279Z" fill="#277297" stroke="#277297"></path><path d="M362 279L324 257L343 348Z" fill="#0c2435" stroke="#0c2435"></path><path d="M126 714L223 695L187 621Z" fill="#19435d" stroke="#19435d"></path><path d="M252 665L223 695L316 698Z" fill="#00101c" stroke="#00101c"></path><path d="M540 537L540 465L518 499Z" fill="#112e42" stroke="#112e42"></path><path d="M518 499L540 465L485 437Z" fill="#297ea6" stroke="#297ea6"></path><path d="M75 540L91 561L95 494Z" fill="#0c2435" stroke="#0c2435"></path><path d="M95 494L91 561L153 509Z" fill="#205a7a" stroke="#205a7a"></path><path d="M540 465L540 441L485 437Z" fill="#297ea6" stroke="#297ea6"></path><path d="M468 281L413 261L415 291Z" fill="#00101c" stroke="#00101c"></path><path d="M350 720L410 696L361 633Z" fill="#246688" stroke="#246688"></path><path d="M540 611L540 537L496 565Z" fill="#205a7a" stroke="#205a7a"></path><path d="M540 611L496 565L448 624Z" fill="#15384f" stroke="#15384f"></path><path d="M496 565L540 537L490 514Z" fill="#00101c" stroke="#00101c"></path><path d="M316 698L350 720L361 633Z" fill="#297ea6" stroke="#297ea6"></path><path d="M260 765L350 720L316 698Z" fill="#297ea6" stroke="#297ea6"></path><path d="M0 515L75 540L95 494Z" fill="#297ea6" stroke="#297ea6"></path><path d="M468 281L440 362L540 332Z" fill="#277297" stroke="#277297"></path><path d="M415 291L413 261L362 279Z" fill="#19435d" stroke="#19435d"></path><path d="M469 731L455 682L410 696Z" fill="#19435d" stroke="#19435d"></path><path d="M410 696L455 682L406 634Z" fill="#1d4e6b" stroke="#1d4e6b"></path><path d="M413 261L321 232L362 279Z" fill="#19435d" stroke="#19435d"></path><path d="M324 257L233 239L260 306Z" fill="#112e42" stroke="#112e42"></path><path d="M90 312L103 338L205 308Z" fill="#1d4e6b" stroke="#1d4e6b"></path><path d="M205 308L103 338L203 330Z" fill="#15384f" stroke="#15384f"></path><path d="M0 515L40 585L75 540Z" fill="#081a28" stroke="#081a28"></path><path d="M321 232L233 239L324 257Z" fill="#19435d" stroke="#19435d"></path><path d="M540 332L440 362L487 391Z" fill="#0c2435" stroke="#0c2435"></path><path d="M455 682L540 611L448 624Z" fill="#297ea6" stroke="#297ea6"></path><path d="M342 183L304 210L321 232Z" fill="#205a7a" stroke="#205a7a"></path><path d="M321 232L304 210L233 239Z" fill="#205a7a" stroke="#205a7a"></path><path d="M342 183L321 232L413 261Z" fill="#1d4e6b" stroke="#1d4e6b"></path><path d="M540 441L540 332L487 391Z" fill="#15384f" stroke="#15384f"></path><path d="M145 240L90 312L205 308Z" fill="#246688" stroke="#246688"></path><path d="M103 338L62 355L90 433Z" fill="#112e42" stroke="#112e42"></path><path d="M90 312L62 355L103 338Z" fill="#19435d" stroke="#19435d"></path><path d="M210 756L260 765L223 695Z" fill="#205a7a" stroke="#205a7a"></path><path d="M223 695L260 765L316 698Z" fill="#081a28" stroke="#081a28"></path><path d="M458 756L469 731L410 696Z" fill="#246688" stroke="#246688"></path><path d="M116 699L187 621L112 584Z" fill="#0c2435" stroke="#0c2435"></path><path d="M95 254L82 308L90 312Z" fill="#246688" stroke="#246688"></path><path d="M90 312L82 308L62 355Z" fill="#277297" stroke="#277297"></path><path d="M75 540L40 585L91 561Z" fill="#1d4e6b" stroke="#1d4e6b"></path><path d="M91 561L40 585L112 584Z" fill="#1d4e6b" stroke="#1d4e6b"></path><path d="M0 461L95 494L90 433Z" fill="#081a28" stroke="#081a28"></path><path d="M66 659L116 699L112 584Z" fill="#081a28" stroke="#081a28"></path><path d="M126 714L210 756L223 695Z" fill="#112e42" stroke="#112e42"></path><path d="M157 203L145 240L233 239Z" fill="#205a7a" stroke="#205a7a"></path><path d="M233 239L145 240L205 308Z" fill="#081a28" stroke="#081a28"></path><path d="M116 699L126 714L187 621Z" fill="#297ea6" stroke="#297ea6"></path><path d="M458 756L410 696L350 720Z" fill="#297ea6" stroke="#297ea6"></path><path d="M455 682L540 693L540 611Z" fill="#1d4e6b" stroke="#1d4e6b"></path><path d="M40 585L66 659L112 584Z" fill="#15384f" stroke="#15384f"></path><path d="M116 699L42 741L126 714Z" fill="#19435d" stroke="#19435d"></path><path d="M425 179L342 183L413 261Z" fill="#205a7a" stroke="#205a7a"></path><path d="M256 150L157 203L233 239Z" fill="#246688" stroke="#246688"></path><path d="M475 209L413 261L468 281Z" fill="#1d4e6b" stroke="#1d4e6b"></path><path d="M0 432L90 433L62 355Z" fill="#0c2435" stroke="#0c2435"></path><path d="M0 432L0 461L90 433Z" fill="#112e42" stroke="#112e42"></path><path d="M339 795L458 756L350 720Z" fill="#0c2435" stroke="#0c2435"></path><path d="M469 731L540 693L455 682Z" fill="#1d4e6b" stroke="#1d4e6b"></path><path d="M0 461L0 515L95 494Z" fill="#00101c" stroke="#00101c"></path><path d="M40 585L0 636L66 659Z" fill="#246688" stroke="#246688"></path><path d="M540 710L540 693L469 731Z" fill="#1d4e6b" stroke="#1d4e6b"></path><path d="M254 797L339 795L260 765Z" fill="#297ea6" stroke="#297ea6"></path><path d="M260 765L339 795L350 720Z" fill="#1d4e6b" stroke="#1d4e6b"></path><path d="M0 331L0 432L62 355Z" fill="#081a28" stroke="#081a28"></path><path d="M145 240L95 254L90 312Z" fill="#277297" stroke="#277297"></path><path d="M0 329L0 331L62 355Z" fill="#19435d" stroke="#19435d"></path><path d="M141 205L95 254L145 240Z" fill="#112e42" stroke="#112e42"></path><path d="M540 332L540 268L468 281Z" fill="#00101c" stroke="#00101c"></path><path d="M219 819L254 797L210 756Z" fill="#19435d" stroke="#19435d"></path><path d="M210 756L254 797L260 765Z" fill="#0c2435" stroke="#0c2435"></path><path d="M276 154L233 239L304 210Z" fill="#081a28" stroke="#081a28"></path><path d="M540 268L475 209L468 281Z" fill="#297ea6" stroke="#297ea6"></path><path d="M540 750L540 710L469 731Z" fill="#277297" stroke="#277297"></path><path d="M157 203L141 205L145 240Z" fill="#277297" stroke="#277297"></path><path d="M475 209L425 179L413 261Z" fill="#277297" stroke="#277297"></path><path d="M368 151L276 154L342 183Z" fill="#081a28" stroke="#081a28"></path><path d="M342 183L276 154L304 210Z" fill="#15384f" stroke="#15384f"></path><path d="M157 203L111 139L141 205Z" fill="#0c2435" stroke="#0c2435"></path><path d="M425 179L368 151L342 183Z" fill="#15384f" stroke="#15384f"></path><path d="M254 103L256 150L276 154Z" fill="#081a28" stroke="#081a28"></path><path d="M276 154L256 150L233 239Z" fill="#00101c" stroke="#00101c"></path><path d="M141 205L64 246L95 254Z" fill="#112e42" stroke="#112e42"></path><path d="M95 254L64 246L82 308Z" fill="#19435d" stroke="#19435d"></path><path d="M0 329L62 355L82 308Z" fill="#1d4e6b" stroke="#1d4e6b"></path><path d="M66 659L42 741L116 699Z" fill="#081a28" stroke="#081a28"></path><path d="M154 818L219 819L210 756Z" fill="#246688" stroke="#246688"></path><path d="M0 515L0 636L40 585Z" fill="#112e42" stroke="#112e42"></path><path d="M0 250L0 329L82 308Z" fill="#19435d" stroke="#19435d"></path><path d="M0 636L0 639L66 659Z" fill="#205a7a" stroke="#205a7a"></path><path d="M154 818L210 756L126 714Z" fill="#246688" stroke="#246688"></path><path d="M309 844L389 835L339 795Z" fill="#00101c" stroke="#00101c"></path><path d="M425 179L427 112L368 151Z" fill="#081a28" stroke="#081a28"></path><path d="M475 209L450 165L425 179Z" fill="#19435d" stroke="#19435d"></path><path d="M485 126L450 165L475 209Z" fill="#112e42" stroke="#112e42"></path><path d="M458 756L540 750L469 731Z" fill="#1d4e6b" stroke="#1d4e6b"></path><path d="M482 819L540 750L458 756Z" fill="#1d4e6b" stroke="#1d4e6b"></path><path d="M540 268L540 209L475 209Z" fill="#19435d" stroke="#19435d"></path><path d="M309 844L339 795L254 797Z" fill="#0c2435" stroke="#0c2435"></path><path d="M339 795L389 835L458 756Z" fill="#00101c" stroke="#00101c"></path><path d="M247 848L309 844L254 797Z" fill="#15384f" stroke="#15384f"></path><path d="M389 835L444 824L458 756Z" fill="#15384f" stroke="#15384f"></path><path d="M88 790L154 818L126 714Z" fill="#112e42" stroke="#112e42"></path><path d="M219 819L247 848L254 797Z" fill="#277297" stroke="#277297"></path><path d="M204 916L247 848L219 819Z" fill="#277297" stroke="#277297"></path><path d="M0 730L42 741L66 659Z" fill="#277297" stroke="#277297"></path><path d="M473 867L482 819L444 824Z" fill="#112e42" stroke="#112e42"></path><path d="M444 824L482 819L458 756Z" fill="#246688" stroke="#246688"></path><path d="M42 741L88 790L126 714Z" fill="#112e42" stroke="#112e42"></path><path d="M540 209L540 182L475 209Z" fill="#1d4e6b" stroke="#1d4e6b"></path><path d="M368 151L254 103L276 154Z" fill="#246688" stroke="#246688"></path><path d="M149 99L111 139L157 203Z" fill="#205a7a" stroke="#205a7a"></path><path d="M30 177L0 250L64 246Z" fill="#277297" stroke="#277297"></path><path d="M262 55L254 103L358 37Z" fill="#15384f" stroke="#15384f"></path><path d="M427 112L425 179L450 165Z" fill="#0c2435" stroke="#0c2435"></path><path d="M30 177L64 246L141 205Z" fill="#277297" stroke="#277297"></path><path d="M64 246L0 250L82 308Z" fill="#205a7a" stroke="#205a7a"></path><path d="M485 126L427 112L450 165Z" fill="#15384f" stroke="#15384f"></path><path d="M0 730L21 752L42 741Z" fill="#205a7a" stroke="#205a7a"></path><path d="M42 741L21 752L88 790Z" fill="#205a7a" stroke="#205a7a"></path><path d="M0 639L0 730L66 659Z" fill="#277297" stroke="#277297"></path><path d="M247 848L266 877L309 844Z" fill="#246688" stroke="#246688"></path><path d="M309 844L361 891L389 835Z" fill="#15384f" stroke="#15384f"></path><path d="M444 911L473 867L444 824Z" fill="#205a7a" stroke="#205a7a"></path><path d="M204 916L266 877L247 848Z" fill="#297ea6" stroke="#297ea6"></path><path d="M204 916L219 819L163 905Z" fill="#0c2435" stroke="#0c2435"></path><path d="M149 99L157 203L256 150Z" fill="#15384f" stroke="#15384f"></path><path d="M540 182L485 126L475 209Z" fill="#205a7a" stroke="#205a7a"></path><path d="M0 800L84 817L88 790Z" fill="#0c2435" stroke="#0c2435"></path><path d="M88 790L84 817L154 818Z" fill="#112e42" stroke="#112e42"></path><path d="M266 877L361 891L309 844Z" fill="#19435d" stroke="#19435d"></path><path d="M540 182L540 141L485 126Z" fill="#205a7a" stroke="#205a7a"></path><path d="M111 139L30 177L141 205Z" fill="#1d4e6b" stroke="#1d4e6b"></path><path d="M254 103L210 79L256 150Z" fill="#00101c" stroke="#00101c"></path><path d="M111 139L51 98L30 177Z" fill="#112e42" stroke="#112e42"></path><path d="M262 55L210 79L254 103Z" fill="#246688" stroke="#246688"></path><path d="M210 79L149 99L256 150Z" fill="#277297" stroke="#277297"></path><path d="M444 911L444 824L389 835Z" fill="#246688" stroke="#246688"></path><path d="M482 819L540 851L540 750Z" fill="#19435d" stroke="#19435d"></path><path d="M82 72L145 99L99 0Z" fill="#277297" stroke="#277297"></path><path d="M149 99L145 99L111 139Z" fill="#00101c" stroke="#00101c"></path><path d="M485 126L480 99L427 112Z" fill="#1d4e6b" stroke="#1d4e6b"></path><path d="M358 37L254 103L368 151Z" fill="#297ea6" stroke="#297ea6"></path><path d="M540 141L480 99L485 126Z" fill="#297ea6" stroke="#297ea6"></path><path d="M358 37L368 151L427 112Z" fill="#00101c" stroke="#00101c"></path><path d="M82 72L111 139L145 99Z" fill="#112e42" stroke="#112e42"></path><path d="M0 84L0 181L30 177Z" fill="#297ea6" stroke="#297ea6"></path><path d="M30 177L0 181L0 250Z" fill="#246688" stroke="#246688"></path><path d="M473 867L540 851L482 819Z" fill="#297ea6" stroke="#297ea6"></path><path d="M444 911L485 881L473 867Z" fill="#297ea6" stroke="#297ea6"></path><path d="M473 867L485 881L540 851Z" fill="#081a28" stroke="#081a28"></path><path d="M0 730L0 800L21 752Z" fill="#246688" stroke="#246688"></path><path d="M21 752L0 800L88 790Z" fill="#1d4e6b" stroke="#1d4e6b"></path><path d="M163 905L219 819L154 818Z" fill="#0c2435" stroke="#0c2435"></path><path d="M163 905L154 818L89 891Z" fill="#15384f" stroke="#15384f"></path><path d="M266 877L324 960L361 891Z" fill="#1d4e6b" stroke="#1d4e6b"></path><path d="M361 891L444 911L389 835Z" fill="#1d4e6b" stroke="#1d4e6b"></path><path d="M89 891L154 818L84 817Z" fill="#297ea6" stroke="#297ea6"></path><path d="M399 960L444 911L361 891Z" fill="#00101c" stroke="#00101c"></path><path d="M485 881L540 892L540 851Z" fill="#0c2435" stroke="#0c2435"></path><path d="M405 40L358 37L427 112Z" fill="#1d4e6b" stroke="#1d4e6b"></path><path d="M39 865L69 865L84 817Z" fill="#112e42" stroke="#112e42"></path><path d="M358 37L405 40L384 0Z" fill="#205a7a" stroke="#205a7a"></path><path d="M480 99L405 40L427 112Z" fill="#081a28" stroke="#081a28"></path><path d="M0 800L0 819L84 817Z" fill="#246688" stroke="#246688"></path><path d="M39 865L89 891L69 865Z" fill="#0c2435" stroke="#0c2435"></path><path d="M69 865L89 891L84 817Z" fill="#081a28" stroke="#081a28"></path><path d="M177 960L277 960L204 916Z" fill="#112e42" stroke="#112e42"></path><path d="M145 99L149 99L192 0Z" fill="#297ea6" stroke="#297ea6"></path><path d="M82 72L51 98L111 139Z" fill="#15384f" stroke="#15384f"></path><path d="M0 819L39 865L84 817Z" fill="#15384f" stroke="#15384f"></path><path d="M487 960L540 892L485 881Z" fill="#277297" stroke="#277297"></path><path d="M192 0L149 99L210 79Z" fill="#112e42" stroke="#112e42"></path><path d="M231 0L210 79L262 55Z" fill="#15384f" stroke="#15384f"></path><path d="M277 960L266 877L204 916Z" fill="#00101c" stroke="#00101c"></path><path d="M277 960L324 960L266 877Z" fill="#081a28" stroke="#081a28"></path><path d="M444 911L487 960L485 881Z" fill="#246688" stroke="#246688"></path><path d="M177 960L204 916L163 905Z" fill="#246688" stroke="#246688"></path><path d="M324 960L378 960L361 891Z" fill="#277297" stroke="#277297"></path><path d="M372 0L314 0L358 37Z" fill="#246688" stroke="#246688"></path><path d="M358 37L314 0L262 55Z" fill="#112e42" stroke="#112e42"></path><path d="M378 960L399 960L361 891Z" fill="#15384f" stroke="#15384f"></path><path d="M384 0L372 0L358 37Z" fill="#15384f" stroke="#15384f"></path><path d="M384 0L405 40L442 0Z" fill="#297ea6" stroke="#297ea6"></path><path d="M442 0L405 40L480 99Z" fill="#297ea6" stroke="#297ea6"></path><path d="M314 0L231 0L262 55Z" fill="#1d4e6b" stroke="#1d4e6b"></path><path d="M93 960L163 905L89 891Z" fill="#205a7a" stroke="#205a7a"></path><path d="M93 960L177 960L163 905Z" fill="#246688" stroke="#246688"></path><path d="M72 0L46 64L82 72Z" fill="#246688" stroke="#246688"></path><path d="M82 72L46 64L51 98Z" fill="#19435d" stroke="#19435d"></path><path d="M51 98L0 84L30 177Z" fill="#1d4e6b" stroke="#1d4e6b"></path><path d="M231 0L192 0L210 79Z" fill="#00101c" stroke="#00101c"></path><path d="M540 141L540 41L480 99Z" fill="#19435d" stroke="#19435d"></path><path d="M540 41L442 0L480 99Z" fill="#081a28" stroke="#081a28"></path><path d="M46 64L0 84L51 98Z" fill="#1d4e6b" stroke="#1d4e6b"></path><path d="M0 0L0 84L46 64Z" fill="#081a28" stroke="#081a28"></path><path d="M399 960L487 960L444 911Z" fill="#277297" stroke="#277297"></path><path d="M0 918L89 891L39 865Z" fill="#19435d" stroke="#19435d"></path><path d="M28 960L93 960L89 891Z" fill="#297ea6" stroke="#297ea6"></path><path d="M192 0L99 0L145 99Z" fill="#112e42" stroke="#112e42"></path><path d="M487 960L540 960L540 892Z" fill="#277297" stroke="#277297"></path><path d="M0 819L0 918L39 865Z" fill="#0c2435" stroke="#0c2435"></path><path d="M540 41L540 0L442 0Z" fill="#0c2435" stroke="#0c2435"></path><path d="M99 0L72 0L82 72Z" fill="#15384f" stroke="#15384f"></path><path d="M0 918L28 960L89 891Z" fill="#277297" stroke="#277297"></path><path d="M0 918L0 960L28 960Z" fill="#1d4e6b" stroke="#1d4e6b"></path><path d="M72 0L0 0L46 64Z" fill="#112e42" stroke="#112e42"></path></g></svg>